<svg width="32" height="32" viewBox="0 0 32 32" fill="none" xmlns="http://www.w3.org/2000/svg">
<path fill-rule="evenodd" clip-rule="evenodd" d="M7.99087 4.36431C7.92465 3.87621 7.50626 3.5 7 3.5H3L2.86431 3.50913C2.37621 3.57535 2 3.99374 2 4.5L2.00913 4.63569C2.07535 5.12379 2.49374 5.5 3 5.5H6V20.5L6.00913 20.6357C6.07535 21.1238 6.49374 21.5 7 21.5H29L29.1357 21.4909C29.6238 21.4247 30 21.0063 30 20.5V8.5L29.9909 8.36431C29.9247 7.8762 29.5063 7.5 29 7.5H8V4.5L7.99087 4.36431ZM8 9.5H28V19.5H8V9.5ZM25.818 25C25.818 26.3807 24.6987 27.5 23.318 27.5C21.9373 27.5 20.818 26.3807 20.818 25C20.818 23.6193 21.9373 22.5 23.318 22.5C24.6987 22.5 25.818 23.6193 25.818 25ZM11.318 27.5C12.6987 27.5 13.818 26.3807 13.818 25C13.818 23.6193 12.6987 22.5 11.318 22.5C9.93728 22.5 8.81799 23.6193 8.81799 25C8.81799 26.3807 9.93728 27.5 11.318 27.5Z" fill="#333333"/>
</svg>
