<svg width="32" height="32" viewBox="0 0 32 32" fill="none" xmlns="http://www.w3.org/2000/svg">
<path fill-rule="evenodd" clip-rule="evenodd" d="M30 16C30 8.26801 23.732 2 16 2C8.26801 2 2 8.26801 2 16C2 23.732 8.26801 30 16 30C23.732 30 30 23.732 30 16ZM23.0567 10.2923C22.6658 9.90209 22.0326 9.90265 21.6424 10.2935L12.405 19.546L10.1395 17.0292L10.0498 16.9411C9.67414 16.6159 9.10623 16.6138 8.72729 16.9548C8.31676 17.3242 8.28346 17.9565 8.65291 18.3671L11.6244 21.6689L11.7106 21.754C12.1012 22.0954 12.6993 22.0832 13.0754 21.7065L23.0579 11.7065L23.141 11.6122C23.4457 11.2196 23.4175 10.6524 23.0567 10.2923Z" fill="#008D73"/>
</svg>
