<?xml version="1.0" standalone="no"?>
<!DOCTYPE svg PUBLIC "-//W3C//DTD SVG 1.0//EN" "http://www.w3.org/TR/2001/REC-SVG-20010904/DTD/svg10.dtd">
<svg xmlns="http://www.w3.org/2000/svg" xmlns:xlink="http://www.w3.org/1999/xlink" id="body_1" width="14" height="14">

<g transform="matrix(1 0 0 1 0 0)">
    <path d="M7 0C 10.866 0 14 3.13401 14 7C 14 10.866 10.866 14 7 14C 3.13401 14 0 10.866 0 7C 0 3.13401 3.13401 0 7 0zM7 1C 3.68629 1 1 3.68629 1 7C 1 10.3137 3.68629 13 7 13C 10.3137 13 13 10.3137 13 7C 13 3.68629 10.3137 1 7 1zM7.99194 3.41012C 7.94961 3.17688 7.74546 3 7.5 3L7.5 3L7.41012 3.00806C 7.17688 3.05039 7 3.25454 7 3.5L7 3.5L7 7L4.5 7L4.41012 7.00806C 4.17688 7.05039 4 7.25454 4 7.5C 4 7.77614 4.22386 8 4.5 8L4.5 8L7.5 8L7.58988 7.99194C 7.82312 7.94961 8 7.74546 8 7.5L8 7.5L8 3.5L7.99194 3.41012z" stroke="none" fill="#74767C" fill-rule="nonzero" />
</g>
</svg>