<svg width="12" height="12" viewBox="0 0 12 12" fill="none" xmlns="http://www.w3.org/2000/svg">
<path fill-rule="evenodd" clip-rule="evenodd" d="M1.05026 1.05026C1.24552 0.854993 1.5621 0.854993 1.75736 1.05026L6 5.2929L10.2426 1.05026C10.4379 0.854993 10.7545 0.854993 10.9497 1.05026C11.145 1.24552 11.145 1.5621 10.9497 1.75736L6.70711 6L10.9497 10.2426C11.145 10.4379 11.145 10.7545 10.9497 10.9497C10.7545 11.145 10.4379 11.145 10.2426 10.9497L6 6.70711L1.75736 10.9497C1.5621 11.145 1.24552 11.145 1.05026 10.9497C0.854993 10.7545 0.854993 10.4379 1.05026 10.2426L5.2929 6L1.05026 1.75736C0.854993 1.5621 0.854993 1.24552 1.05026 1.05026Z" fill="#111112"/>
</svg>
