<svg width="16" height="16" viewBox="0 0 16 16" fill="none" xmlns="http://www.w3.org/2000/svg">
<path fill-rule="evenodd" clip-rule="evenodd" d="M0.575383 0.575379C0.868276 0.282486 1.34315 0.282486 1.63604 0.575379L8 6.93934L14.364 0.575379C14.6569 0.282486 15.1317 0.282486 15.4246 0.575379C15.7175 0.868272 15.7175 1.34315 15.4246 1.63604L9.06066 8L15.4246 14.364C15.7175 14.6569 15.7175 15.1317 15.4246 15.4246C15.1317 15.7175 14.6569 15.7175 14.364 15.4246L8 9.06066L1.63604 15.4246C1.34315 15.7175 0.868276 15.7175 0.575383 15.4246C0.28249 15.1317 0.28249 14.6569 0.575383 14.364L6.93934 8L0.575383 1.63604C0.28249 1.34315 0.28249 0.868272 0.575383 0.575379Z" fill="white"/>
</svg>
