<svg width="16" height="16" viewBox="0 0 16 16" fill="none" xmlns="http://www.w3.org/2000/svg">
<path fill-rule="evenodd" clip-rule="evenodd" d="M15 8C15 11.866 11.866 15 8 15C4.13401 15 1 11.866 1 8C1 4.13401 4.13401 1 8 1C11.866 1 15 4.13401 15 8ZM8 3.9C8.29823 3.9 8.54565 4.11759 8.59215 4.40268L8.6 4.5V9.6407C8.6 9.97207 8.33137 10.2407 8 10.2407C7.70177 10.2407 7.45435 10.0231 7.40785 9.73802L7.4 9.6407V4.5C7.4 4.16863 7.66863 3.9 8 3.9ZM8 12.1016C8.33224 12.1016 8.60157 11.8322 8.60157 11.5C8.60157 11.1678 8.33224 10.8984 8 10.8984C7.66776 10.8984 7.39843 11.1678 7.39843 11.5C7.39843 11.8322 7.66776 12.1016 8 12.1016Z" fill="#DC0E16"/>
</svg>
