<svg width="16" height="16" viewBox="0 0 16 16" fill="none" xmlns="http://www.w3.org/2000/svg">
<path fill-rule="evenodd" clip-rule="evenodd" d="M6.5 9C6.77614 9 7 9.22386 7 9.5V14.5C7 14.7761 6.77614 15 6.5 15H1.5C1.22386 15 1 14.7761 1 14.5V9.5C1 9.22386 1.22386 9 1.5 9H6.5ZM14.5 9C14.7761 9 15 9.22386 15 9.5V14.5C15 14.7761 14.7761 15 14.5 15H9.5C9.22386 15 9 14.7761 9 14.5V9.5C9 9.22386 9.22386 9 9.5 9H14.5ZM6 10H2V14H6V10ZM14 10H10V14H14V10ZM6.5 1C6.77614 1 7 1.22386 7 1.5V6.5C7 6.77614 6.77614 7 6.5 7H1.5C1.22386 7 1 6.77614 1 6.5V1.5C1 1.22386 1.22386 1 1.5 1H6.5ZM14.5 1C14.7761 1 15 1.22386 15 1.5V6.5C15 6.77614 14.7761 7 14.5 7H9.5C9.22386 7 9 6.77614 9 6.5V1.5C9 1.22386 9.22386 1 9.5 1H14.5ZM6 2H2V6H6V2ZM14 2H10V6H14V2Z" fill="#222223"/>
</svg>
