<svg width="16" height="16" viewBox="0 0 16 16" fill="none" xmlns="http://www.w3.org/2000/svg">
<path fill-rule="evenodd" clip-rule="evenodd" d="M8 1.75C10.6888 1.75 12.8818 3.87231 12.9954 6.53311L13 6.75V8.75C14.1046 8.75 15 9.64543 15 10.75V11.75C15 12.8546 14.1046 13.75 13 13.75H11V8.75H12V6.75C12 4.54086 10.2091 2.75 8 2.75C5.8578 2.75 4.10892 4.43397 4.0049 6.55036L4 6.75V8.75H5V13.75H3C1.89543 13.75 1 12.8546 1 11.75V10.75C1 9.64543 1.89543 8.75 3 8.75V6.75C3 3.98858 5.23858 1.75 8 1.75ZM4 9.75V12.75H3L2.88338 12.7433C2.38604 12.6855 2 12.2628 2 11.75V10.75L2.00673 10.6334C2.06449 10.136 2.48716 9.75 3 9.75H4ZM12 12.75V9.75H13C13.5128 9.75 13.9355 10.136 13.9933 10.6334L14 10.75V11.75C14 12.2628 13.614 12.6855 13.1166 12.7433L13 12.75H12Z" fill="#222223"/>
</svg>
