<svg width="12" height="8" viewBox="0 0 12 8" fill="none" xmlns="http://www.w3.org/2000/svg">
<path fill-rule="evenodd" clip-rule="evenodd" d="M4.35355 0.146447C4.17999 -0.0271197 3.91056 -0.0464049 3.71569 0.0885912L3.64645 0.146447L0.117594 3.67786L0.0667474 3.75023L0.0376106 3.8094L0.0166108 3.87186L0.00518575 3.92772L0 4L0.00282096 4.05343L0.0166083 4.12815L0.0377922 4.19104L0.077188 4.26701L0.117594 4.32214L3.64645 7.85355L3.71569 7.91141C3.8862 8.02953 4.1138 8.02953 4.28431 7.91141L4.35355 7.85355L4.41141 7.78431C4.52953 7.6138 4.52953 7.3862 4.41141 7.21569L4.35355 7.14645L1.708 4.5H11.5C11.7761 4.5 12 4.27614 12 4C12 3.75454 11.8231 3.55039 11.5899 3.50806L11.5 3.5H1.706L4.35355 0.853553L4.41141 0.784306C4.5464 0.589437 4.52712 0.320013 4.35355 0.146447Z" fill="#2E2F32"/>
</svg>
