<svg width="37" height="37" viewBox="0 0 37 37" fill="none" xmlns="http://www.w3.org/2000/svg">
<path fill-rule="evenodd" clip-rule="evenodd" d="M21.6076 0.000488281C21.875 0.000488281 22.129 0.104488 22.3176 0.293155C22.4769 0.455322 22.5815 0.672613 22.6052 0.901262L22.6103 0.999822V5.16649C23.2292 5.36982 23.8296 5.61389 24.4041 5.89871L24.7456 6.07449L27.643 3.17716C28.0092 2.8109 28.5928 2.78801 28.9863 3.10848L29.0623 3.17716L33.3396 7.45782C33.7059 7.82407 33.7288 8.40184 33.4083 8.79454L33.3396 8.87049L30.4623 11.7485C30.7823 12.3396 31.0569 12.9515 31.2827 13.5797L31.4123 13.9585H35.5663C36.0871 13.9585 36.5157 14.3536 36.5644 14.8614L36.569 14.9578V21.0158C36.569 21.5366 36.1709 21.9623 35.6628 22.0106L35.5663 22.0152H31.6076C31.3685 22.8756 31.0548 23.7008 30.6617 24.4845L30.4883 24.8178L33.359 27.6892C33.7252 28.0554 33.7481 28.6332 33.4276 29.0259L33.359 29.1018L29.0816 33.3825C28.7279 33.7362 28.1222 33.7583 27.7364 33.4488L27.6623 33.3825L24.7983 30.5145C24.1674 30.8522 23.5175 31.1346 22.8568 31.3641L22.5256 31.4745V35.5665C22.5256 35.8338 22.415 36.0872 22.233 36.2732C22.0679 36.4382 21.8528 36.5385 21.6225 36.561L21.523 36.5658L15.4623 36.5625C14.9415 36.5625 14.5129 36.1674 14.4642 35.6596L14.4596 35.5632V31.6018C13.6395 31.3708 12.8341 31.0556 12.0565 30.6597L11.725 30.4852L8.84763 33.3658C8.65897 33.5552 8.40497 33.6592 8.13763 33.6592C7.9043 33.6592 7.68067 33.5795 7.50201 33.4328L7.4283 33.3658L3.15097 29.0858C2.78472 28.7196 2.76183 28.1412 3.08229 27.7484L3.15097 27.6725L6.0483 24.7692C5.65513 24.0312 5.32679 23.2561 5.07622 22.4503L4.97363 22.1032H1.00897C0.488183 22.1032 0.0595227 21.7081 0.0108941 21.2003L0.00629997 21.1038L-0.000366211 15.0458C-0.000366211 14.7818 0.1103 14.5285 0.292967 14.3392C0.45805 14.1741 0.673154 14.0738 0.902997 14.0513L1.0023 14.0465H5.1103C5.32801 13.3739 5.59373 12.7229 5.91122 12.0997L6.0743 11.7905L3.18363 8.90316C2.81738 8.53691 2.79449 7.95913 3.11496 7.56644L3.18363 7.49049L7.46097 3.20982C7.81472 2.85607 8.42042 2.83396 8.80621 3.14349L8.8803 3.20982L11.7643 6.09715C12.539 5.68415 13.3483 5.34619 14.1884 5.08682L14.5503 4.98049V1.00249C14.5503 0.481704 14.9483 0.055997 15.4565 0.00771586L15.553 0.00315475L21.6076 0.000488281ZM20.6056 1.99915L16.5556 2.00249V5.76515C16.5556 6.23715 16.2236 6.64382 15.7616 6.74182C14.4663 7.02182 13.2423 7.50982 12.129 8.19982C11.76 8.42082 11.3014 8.38602 10.9666 8.11944L10.8916 8.05382L8.1703 5.33249L5.30563 8.19715L8.03363 10.9212C8.35897 11.2505 8.41763 11.7612 8.1703 12.1585C7.57163 13.1185 7.1223 14.1732 6.83563 15.2932C6.72612 15.7063 6.37328 16.0033 5.95598 16.0411L5.86563 16.0452H2.00497V20.1045H5.75497C6.22363 20.1045 6.63363 20.4298 6.73163 20.8892C7.00497 22.1452 7.48697 23.3305 8.15097 24.4112C8.37444 24.777 8.33982 25.2406 8.07325 25.5686L8.00763 25.6418L5.27297 28.3792L8.13763 31.2438L10.853 28.5292C11.1783 28.1972 11.6863 28.1385 12.0896 28.3858C13.2163 29.0858 14.4203 29.5738 15.6703 29.8438C16.1021 29.9353 16.4201 30.2956 16.4606 30.727L16.465 30.8205V34.5638L20.521 34.5672V30.7198C20.521 30.2605 20.833 29.8605 21.2823 29.7498C22.3763 29.4758 23.4376 29.0272 24.4396 28.4118C24.7968 28.1939 25.2655 28.2289 25.5965 28.4934L25.6703 28.5585L28.3723 31.2598L31.237 28.3952L28.5283 25.6905C28.203 25.3618 28.1443 24.8505 28.385 24.4565C29.0756 23.3498 29.5636 22.1225 29.8436 20.8078C29.9345 20.376 30.2925 20.0609 30.7263 20.0208L30.8203 20.0165H34.5636V15.9572H30.6636C30.2083 15.9572 29.811 15.6512 29.6936 15.2085C29.4136 14.1245 28.965 13.0832 28.3656 12.1132C28.136 11.7473 28.1701 11.2803 28.4367 10.9523L28.5023 10.8792L31.217 8.16449L28.353 5.29649L25.6183 8.03049C25.2796 8.36316 24.7716 8.41515 24.3816 8.17382C23.4636 7.60782 22.4476 7.17115 21.3476 6.87849C20.9401 6.76898 20.6469 6.41555 20.6097 6.00143L20.6056 5.91182V1.99915ZM12.3242 12.354C15.6182 9.06596 20.9435 9.06596 24.2382 12.354C27.5195 15.6353 27.5195 20.9766 24.2382 24.258C22.6428 25.85 20.5335 26.7253 18.2808 26.7253C16.0282 26.7253 13.9188 25.85 12.3242 24.258C9.04283 20.9766 9.04283 15.6353 12.3242 12.354ZM18.2808 11.888C16.6342 11.888 14.9935 12.5166 13.7435 13.7666C11.2368 16.27 11.2368 20.342 13.7435 22.8453C16.1655 25.274 20.3968 25.274 22.8188 22.8453C25.3255 20.342 25.3255 16.27 22.8188 13.7666C21.5688 12.5166 19.9282 11.888 18.2808 11.888Z" fill="black"/>
</svg>
