<svg width="22" height="22" viewBox="0 0 22 22" fill="none" xmlns="http://www.w3.org/2000/svg">
<path fill-rule="evenodd" clip-rule="evenodd" d="M1.10051 1.10051C1.49103 0.709986 2.1242 0.709986 2.51472 1.10051L11 9.58579L19.4853 1.10051C19.8758 0.709986 20.509 0.709986 20.8995 1.10051C21.29 1.49103 21.29 2.1242 20.8995 2.51472L12.4142 11L20.8995 19.4853C21.29 19.8758 21.29 20.509 20.8995 20.8995C20.509 21.29 19.8758 21.29 19.4853 20.8995L11 12.4142L2.51472 20.8995C2.1242 21.29 1.49103 21.29 1.10051 20.8995C0.709986 20.509 0.709986 19.8758 1.10051 19.4853L9.58579 11L1.10051 2.51472C0.709986 2.1242 0.709986 1.49103 1.10051 1.10051Z" fill="#111112"/>
</svg>
