<svg width="16" height="16" viewBox="0 0 16 16" fill="none" xmlns="http://www.w3.org/2000/svg">
<path fill-rule="evenodd" clip-rule="evenodd" d="M8 1C10.7614 1 13 3.02986 13 6.01023C13 8.34682 11.3333 11.3434 8 15C4.66667 11.3417 3 8.34512 3 6.01023C3 3.02766 5.23858 1 8 1ZM8 2C5.70812 2 4 3.66076 4 6.01023C4 7.83758 5.27175 10.301 7.86136 13.3326L8 13.493L8.13878 13.3328C10.6358 10.4107 11.9075 8.01578 11.9951 6.20861L12 6.01023C12 3.66213 10.291 2 8 2ZM8 7.47141C8.69036 7.47141 9.25 6.91176 9.25 6.22141C9.25 5.53105 8.69036 4.97141 8 4.97141C7.30964 4.97141 6.75 5.53105 6.75 6.22141C6.75 6.91176 7.30964 7.47141 8 7.47141Z" fill="white"/>
</svg>
