<svg width="38" height="38" viewBox="0 0 38 38" fill="none" xmlns="http://www.w3.org/2000/svg">
<path d="M0 0H35C36.6569 0 38 1.34315 38 3V35C38 36.6569 36.6569 38 35 38H0V0Z" fill="#FFD600"/>
<path fill-rule="evenodd" clip-rule="evenodd" d="M17.25 9C21.8063 9 25.5 12.6937 25.5 17.25C25.5 19.2581 24.7825 21.0987 23.59 22.5293L29.7803 28.7197C30.0732 29.0126 30.0732 29.4874 29.7803 29.7803C29.5141 30.0466 29.0974 30.0708 28.8038 29.8529L28.7197 29.7803L22.5293 23.59C21.0987 24.7825 19.2581 25.5 17.25 25.5C12.6937 25.5 9 21.8063 9 17.25C9 12.6937 12.6937 9 17.25 9ZM17.25 10.5C13.5221 10.5 10.5 13.5221 10.5 17.25C10.5 20.9779 13.5221 24 17.25 24C20.9779 24 24 20.9779 24 17.25C24 13.5221 20.9779 10.5 17.25 10.5Z" fill="black"/>
</svg>
