<svg width="12" height="12" viewBox="0 0 12 12" fill="none" xmlns="http://www.w3.org/2000/svg">
<path d="M6.4125 3.5V3.39998L6.31248 3.4L5.68739 3.40011L5.5874 3.40012V3.50011V6.00011V6.10011H5.64786L7.82643 8.27868L7.89714 8.34938L7.96785 8.27868L8.40981 7.83679L8.48053 7.76608L8.40982 7.69536L6.4125 5.69804V3.5ZM11.1 6C11.1 3.18334 8.81666 0.9 6 0.9C3.18334 0.9 0.9 3.18334 0.9 6C0.9 8.81666 3.18334 11.1 6 11.1C8.81666 11.1 11.1 8.81666 11.1 6ZM1.725 6C1.725 3.63898 3.63898 1.725 6 1.725C8.36102 1.725 10.275 3.63898 10.275 6C10.275 8.36102 8.36102 10.275 6 10.275C3.63898 10.275 1.725 8.36102 1.725 6Z" fill="#56C976" stroke="#56C976" stroke-width="0.2"/>
</svg>
